# xmcd
#
# Track frame offsets:
#	150
#	12777
#	31957
#	55927
#	70562
#	91521
#	109633
#	129095
#	143929
#	162980
#	186862
#	196514
#	210214
#	235781
#	240743
#
# Disc length: 3387 seconds
#
# Revision: 1
# Processed by: cddbd v1.5.1PL2 Copyright (c) Steve Scherf et al.
# Submitted via: audiograbber 1.83.01
#
DISCID=af0d390f
DTITLE=Yardbirds and Sonny Boy Williamson - Live With Sonny
DYEAR=1965
DGENRE=Blues
TTITLE0=Bye Bye Bird
TTITLE1=Mr. Downchild
TTITLE2=23 Hours Too Long
TTITLE3=Out Of The Water Coast
TTITLE4=Baby Don't Worry
TTITLE5=Pontiac Blues
TTITLE6=Take It Eas Baby (Take 1)
TTITLE7=I Don't Care No More
TTITLE8=Do The Weston
TTITLE9=The River Rhine
TTITLE10=A Lost Care
TTITLE11=Western Arizona
TTITLE12=Take It Eas Baby (Take 2)
TTITLE13=Slow Walk
TTITLE14=Highway 69
EXTD=
EXTT0=
EXTT1=
EXTT2=
EXTT3=
EXTT4=
EXTT5=
EXTT6=
EXTT7=
EXTT8=
EXTT9=
EXTT10=
EXTT11=
EXTT12=
EXTT13=
EXTT14=
PLAYORDER=
